<svg xmlns="http://www.w3.org/2000/svg" width="3096" height="1390" fill="none" viewBox="0 0 3096 1390">
  <path fill="#724ac7" fill-rule="evenodd" d="M1413.1 725.658c3.98 75.252-43.78 151.247-143.26 208.685L820.372 1193.84c-9.565 5.53-25.075 5.53-34.641 0L7.17451 744.343C2.5829 741.692.195262 738.25.0115982 734.777v192C.195262 930.25 2.5829 933.692 7.17451 936.343L785.731 1385.84c9.566 5.53 25.076 5.53 34.641 0l449.468-259.5c99.48-57.43 147.24-133.43 143.26-208.682z" clip-rule="evenodd"/>
  <path fill="#6dfff0" d="M1385.29 639.843c60.97 99.546 22.49 214.861-115.45 294.5L820.372 1193.84c-9.565 5.53-25.075 5.53-34.641 0L7.17451 744.343c-9.56573-5.523-9.56583-14.477-.00014-20l146.35763-84.5 632.199 364.997c9.566 5.53 25.076 5.53 34.642 0l449.467-259.497c53.38-30.818 91.86-66.979 115.45-105.5"/>
  <path fill="#724ac7" fill-rule="evenodd" d="M1413.1 343.658c3.98 75.252-43.78 151.247-143.26 208.685l-449.468 259.5c-9.566 5.522-25.075 5.523-34.641 0L7.17439 362.343c-4.59161-2.651-6.979245-6.093-7.1629094-9.566v192c.1836644 3.473 2.5712994 6.915 7.1629094 9.566L785.731 1003.84c9.566 5.53 25.075 5.53 34.641 0l449.468-259.497c99.48-57.438 147.24-133.433 143.26-208.686z" clip-rule="evenodd"/>
  <path fill="#724ac7" fill-rule="evenodd" d="M1075.43 357.174c2.21-41.86-24.35-84.132-79.688-116.081-106.419-61.442-278.961-61.442-385.381 0l-175.37 101.25c-4.592 2.651-6.98 6.092-7.163 9.565v192c.183-3.473 2.571-6.914 7.163-9.565l175.37-101.25c106.42-61.442 278.962-61.442 385.381 0 55.338 31.949 81.898 74.221 79.688 116.081z" clip-rule="evenodd"/>
  <path fill="#6dfff0" fill-rule="evenodd" d="M456.642 82.8427c191.317-110.4569 501.503-110.4569 692.818 0l120.38 69.5003c191.32 110.457 191.32 289.543 0 400l-449.468 259.5c-9.566 5.522-25.075 5.523-34.641 0L7.17439 362.343c-9.56585-5.523-9.56585-14.477 0-20zM434.991 342.343c-9.566 5.523-9.566 14.477 0 20l350.74 202.5c9.566 5.523 25.075 5.523 34.641 0l175.37-101.25c106.418-61.442 106.418-161.059 0-222.5-106.419-61.442-278.961-61.442-385.381 0z" clip-rule="evenodd"/>
  <path fill="#8737ac" d="M1583.41 598.843v-224h68.04c30.99 0 54.42 9.52 70.28 28.56 16.06 18.853 24.08 46.666 24.08 83.44 0 36.586-8.02 64.4-24.08 83.44-15.86 19.04-39.29 28.56-70.28 28.56zm42-39.2h26.04c17.55 0 30.62-5.974 39.2-17.92 8.78-12.134 13.16-30.427 13.16-54.88 0-24.64-4.38-42.934-13.16-54.88-8.58-11.947-21.65-17.92-39.2-17.92h-26.04zm261.02-68.32v31.36l-44.24 7q-9.795 1.3995-15.12 6.72c-3.36 3.546-5.04 8.12-5.04 13.72q0 8.4 5.88 13.44c3.92 3.36 9.33 5.04 16.24 5.04 7.28 0 13.91-1.587 19.88-4.76 5.97-3.36 10.73-7.747 14.28-13.16 3.55-5.6 5.32-11.854 5.32-18.76v-42.28c0-9.894-2.8-17.547-8.4-22.96-5.6-5.414-13.63-8.12-24.08-8.12-7.09 0-13.44 1.213-19.04 3.64-5.6 2.24-10.17 5.6-13.72 10.08-3.36 4.48-5.69 9.986-7 16.52h-38.64c1.12-13.627 5.04-25.294 11.76-35 6.72-9.894 15.77-17.454 27.16-22.68 11.57-5.414 24.92-8.12 40.04-8.12 22.96 0 40.51 5.506 52.64 16.52q18.48 16.5195 18.48 47.04v112.28h-39.2v-16.52h-9.8c-3.73 6.72-8.96 11.853-15.68 15.4-6.72 3.546-15.12 5.32-25.2 5.32-10.45 0-19.6-2.054-27.44-6.16-7.84-4.107-14-9.894-18.48-17.36-4.29-7.467-6.44-16.147-6.44-26.04 0-14.747 4.67-26.694 14-35.84 9.33-9.334 22.59-15.4 39.76-18.2zm131.37-107.52v44.24h75.32v36.4h-75.32v76.16q0 13.1595 5.04 20.16c3.36 4.48 8.31 6.72 14.84 6.72 6.72 0 12.04-2.614 15.96-7.84 4.11-5.227 7.28-13.534 9.52-24.92h35.56c-.93 22.4-6.81 39.573-17.64 51.52q-15.96 17.64-44.52 17.64c-19.04 0-33.69-5.414-43.96-16.24-10.08-11.014-15.12-26.507-15.12-46.48v-76.72h-33.88v-36.4h33.88v-44.24zm204.74 107.52v31.36l-44.24 7q-9.81 1.3995-15.12 6.72c-3.36 3.546-5.04 8.12-5.04 13.72q0 8.4 5.88 13.44c3.92 3.36 9.33 5.04 16.24 5.04 7.28 0 13.9-1.587 19.88-4.76 5.97-3.36 10.73-7.747 14.28-13.16 3.54-5.6 5.32-11.854 5.32-18.76v-42.28c0-9.894-2.8-17.547-8.4-22.96-5.6-5.414-13.63-8.12-24.08-8.12-7.1 0-13.44 1.213-19.04 3.64-5.6 2.24-10.18 5.6-13.72 10.08-3.36 4.48-5.7 9.986-7 16.52h-38.64c1.12-13.627 5.04-25.294 11.76-35 6.72-9.894 15.77-17.454 27.16-22.68 11.57-5.414 24.92-8.12 40.04-8.12 22.96 0 40.5 5.506 52.64 16.52q18.48 16.5195 18.48 47.04v112.28h-39.2v-16.52h-9.8c-3.74 6.72-8.96 11.853-15.68 15.4-6.72 3.546-15.12 5.32-25.2 5.32-10.46 0-19.6-2.054-27.44-6.16-7.84-4.107-14-9.894-18.48-17.36-4.3-7.467-6.44-16.147-6.44-26.04 0-14.747 4.66-26.694 14-35.84 9.33-9.334 22.58-15.4 39.76-18.2zm63.61 107.52v-224h42v184.24h93.52v39.76zm255.7-107.52v31.36l-44.24 7q-9.81 1.3995-15.12 6.72c-3.36 3.546-5.04 8.12-5.04 13.72q0 8.4 5.88 13.44c3.92 3.36 9.33 5.04 16.24 5.04 7.28 0 13.9-1.587 19.88-4.76 5.97-3.36 10.73-7.747 14.28-13.16 3.54-5.6 5.32-11.854 5.32-18.76v-42.28c0-9.894-2.8-17.547-8.4-22.96-5.6-5.414-13.63-8.12-24.08-8.12-7.1 0-13.44 1.213-19.04 3.64-5.6 2.24-10.18 5.6-13.72 10.08-3.36 4.48-5.7 9.986-7 16.52h-38.64c1.12-13.627 5.04-25.294 11.76-35 6.72-9.894 15.77-17.454 27.16-22.68 11.57-5.414 24.92-8.12 40.04-8.12 22.96 0 40.5 5.506 52.64 16.52q18.48 16.5195 18.48 47.04v112.28h-39.2v-16.52h-9.8c-3.74 6.72-8.96 11.853-15.68 15.4-6.72 3.546-15.12 5.32-25.2 5.32-10.46 0-19.6-2.054-27.44-6.16-7.84-4.107-14-9.894-18.48-17.36-4.3-7.467-6.44-16.147-6.44-26.04 0-14.747 4.66-26.694 14-35.84 9.33-9.334 22.58-15.4 39.76-18.2zm51.29-63.28h41.72l40.6 124.32h22.96l-8.96 32.48h-43.96zm167.72 0-55.72 190.96c-3.92 13.066-10.17 23.146-18.76 30.24-8.58 7.093-19.04 10.64-31.36 10.64-15.68 0-28-4.294-36.96-12.88-8.96-8.587-14.18-21.28-15.68-38.08h35.56c2.06 5.786 4.3 9.893 6.72 12.32 2.62 2.613 5.88 3.92 9.8 3.92 3.74 0 6.82-1.307 9.24-3.92 2.43-2.614 4.58-6.814 6.44-12.6l52.08-180.6zm39.54 67.76h97.44l-13.44 15.96c0-17.547-3.08-30.8-9.24-39.76-6.16-9.147-15.31-13.72-27.44-13.72-12.88 0-22.78 4.76-29.68 14.28-6.72 9.333-10.08 22.586-10.08 39.76q0 27.72 10.08 42c6.9 9.52 17.17 14.28 30.8 14.28 8.02 0 15.12-1.867 21.28-5.6 6.34-3.92 11.66-9.614 15.96-17.08h38.36c-3.36 12.133-8.68 22.586-15.96 31.36-7.1 8.586-15.78 15.213-26.04 19.88q-15.405 6.72-34.44 6.72c-16.43 0-30.52-3.64-42.28-10.92s-20.82-17.734-27.16-31.36c-6.35-13.627-9.52-30.054-9.52-49.28 0-18.294 3.26-34.067 9.8-47.32 6.53-13.44 15.68-23.8 27.44-31.08s25.57-10.92 41.44-10.92c15.3 0 28.37 3.546 39.2 10.64 10.82 6.906 19.13 16.986 24.92 30.24 5.78 13.066 8.68 28.933 8.68 47.6 0 2.8-.1 5.413-.28 7.84-.19 2.426-.38 4.853-.56 7.28H2800.4zm137.81-67.76h71.12v14.56h9.8c3.17-6.16 7.75-10.92 13.72-14.28q9.24-5.04 21-5.04 20.445 0 31.08 15.12c7.28 9.893 10.92 24.36 10.92 43.4v26.32h-41.16v-21q0-25.2-19.32-25.2c-8.21 0-14.28 3.733-18.2 11.2-3.92 7.28-5.88 18.386-5.88 33.32v56h49.84v36.4h-119v-36.4h29.96v-98h-33.88z"/>
  <path fill="#724ac7" d="M1952.2 924.843v-192h36v157.92h80.16v34.08zm164.69-88.32h83.52l-11.52 13.68q0-22.56-7.92-34.08-7.92-11.76-23.52-11.76-16.56 0-25.44 12.24-8.64 12-8.64 34.08 0 23.76 8.64 36 8.88 12.24 26.4 12.24 10.32 0 18.24-4.8 8.16-5.04 13.68-14.64h32.88q-4.32 15.6-13.68 26.88-9.12 11.04-22.32 17.04-13.2 5.76-29.52 5.76-21.12 0-36.24-9.36t-23.28-26.88-8.16-42.24q0-23.52 8.4-40.56 8.4-17.28 23.52-26.64t35.52-9.36q19.68 0 33.6 9.12 13.92 8.88 21.36 25.92 7.44 16.8 7.44 40.8 0 3.6-.24 6.72l-.48 6.24h-102.24zm133.25 88.32v-146.4h34.56v12.72h8.4q5.04-8.16 13.68-12.48 8.64-4.56 19.44-4.56 14.88 0 25.44 6.96 10.8 6.72 16.56 19.68 5.76 12.72 5.76 30.48v93.6h-34.56v-84.96q0-16.32-6.96-24.72-6.96-8.64-20.4-8.64t-20.4 8.64q-6.96 8.4-6.96 24.72v84.96zm188.44-45.36q3.36 9.36 11.04 14.4 7.68 4.8 19.68 4.8 12.72 0 19.44-4.08t6.72-11.52q0-6-5.04-9.36-5.04-3.6-15.36-5.04l-20.16-2.4q-24.24-3.12-36.24-13.92-11.76-10.8-11.76-30.48 0-22.32 16.08-35.04 16.32-12.72 45.12-12.72 30 0 46.56 13.68 16.8 13.44 18 38.88h-31.92q-2.88-10.8-11.04-16.32-8.16-5.76-21.84-5.76-13.44 0-20.64 4.32-6.96 4.08-6.96 11.76 0 5.76 5.04 9.36 5.04 3.36 15.36 4.56l20.16 2.64q24.48 2.88 36.24 13.92 11.76 10.8 11.76 30.24 0 14.88-7.2 25.68-6.96 10.56-20.4 16.32-13.2 5.76-32.16 5.76-28.8 0-44.88-12.72-16.08-12.96-18-36.96z"/>
  <path fill="#8737ac" d="m1779.95 808.893 56.17-95.43c-28.2-26.268-65.69-42.62-107.25-42.62-9.88 0-19.44 1.185-28.76 2.883z"/>
  <path fill="#724ac7" d="M1767.87 868.337h113.41c3.28-12.679 5.57-25.753 5.57-39.499 0-38.236-14.14-72.837-36.73-100.171zm-34.08-98.747-53.41-90.375c-44.44 14.417-80.39 47.399-97.81 90.375z"/>
  <path fill="#8737ac" d="m1725.22 888.087 53.25 90.02c43.93-14.615 79.36-47.4 96.67-90.02zm-34.83-98.748h-113.97c-3.27 12.679-5.57 25.754-5.57 39.499 0 38.433 14.26 73.193 37.1 100.566z"/>
  <path fill="#724ac7" d="m1678.66 848.2-56.72 96.339c28.16 26.03 65.53 42.304 106.93 42.304 10.27 0 20.27-1.185 30.02-3.042z"/>
</svg>
