<svg xmlns="http://www.w3.org/2000/svg" width="1500" height="1500" fill="none" viewBox="0 0 1500 1500">
  <path fill="#724ac7" fill-rule="evenodd" d="M1456.1 780.5c3.98 75.253-43.78 151.248-143.26 208.686L863.372 1248.69c-9.565 5.52-25.075 5.52-34.641 0L50.1745 799.186c-4.5916-2.651-6.9792-6.093-7.1629-9.566v192c.1837 3.473 2.5713 6.915 7.1629 9.566L828.731 1440.69c9.566 5.52 25.076 5.52 34.641 0l449.468-259.5c99.48-57.44 147.24-133.44 143.26-208.69z" clip-rule="evenodd"/>
  <path fill="#6dfff0" d="M1428.29 694.685c60.97 99.547 22.49 214.861-115.45 294.501L863.372 1248.69c-9.565 5.52-25.075 5.52-34.641 0L50.1745 799.186c-9.5657-5.523-9.5658-14.478-.0001-20.001l146.3576-84.5 632.199 365.005c9.566 5.52 25.076 5.52 34.642 0l449.467-259.505c53.38-30.817 91.86-66.978 115.45-105.5"/>
  <path fill="#724ac7" fill-rule="evenodd" d="M1456.1 398.5c3.98 75.253-43.78 151.248-143.26 208.685l-449.468 259.5c-9.566 5.523-25.075 5.523-34.641 0l-778.5566-449.5c-4.5916-2.651-6.9793-6.092-7.1629-9.565v192c.1836 3.473 2.5713 6.915 7.1629 9.565L828.731 1058.69c9.566 5.52 25.075 5.52 34.641 0l449.468-259.505c99.48-57.437 147.24-133.432 143.26-208.685z" clip-rule="evenodd"/>
  <path fill="#724ac7" fill-rule="evenodd" d="M1118.43 412.017c2.21-41.86-24.35-84.132-79.69-116.082-106.417-61.441-278.959-61.441-385.379 0l-175.37 101.25c-4.592 2.651-6.98 6.093-7.163 9.566v192c.183-3.473 2.571-6.915 7.163-9.566l175.37-101.25c106.42-61.441 278.962-61.441 385.379 0 55.34 31.95 81.9 74.222 79.69 116.082z" clip-rule="evenodd"/>
  <path fill="#6dfff0" fill-rule="evenodd" d="M499.642 137.685c191.317-110.4565 501.498-110.4565 692.818 0l120.38 69.5c191.32 110.457 191.32 289.544 0 400l-449.468 259.5c-9.566 5.523-25.075 5.523-34.641 0l-778.5566-449.5c-9.5659-5.522-9.5659-14.477 0-20zm-21.651 259.5c-9.566 5.523-9.566 14.478 0 20l350.74 202.5c9.566 5.523 25.075 5.523 34.641 0l175.368-101.25c106.42-61.441 106.42-161.058 0-222.5-106.417-61.441-278.959-61.441-385.379 0z" clip-rule="evenodd"/>
</svg>
